<svg width="363" height="52" viewBox="0 0 363 52" fill="none" xmlns="http://www.w3.org/2000/svg">
<rect width="159.475" height="51.9912" rx="10" fill="#2E2E46"/>
<path d="M104.217 25.0872V27.6928H102.584V29.4015H104.217V35.2075C104.217 37.19 105.114 37.983 107.37 37.983C107.766 37.983 108.144 37.9358 108.474 37.8791V36.1893C108.191 36.2176 108.012 36.2365 107.7 36.2365C106.69 36.2365 106.246 35.7645 106.246 34.6882V29.4015H108.474V27.6928H106.246V25.0872H104.217Z" fill="white"/>
<path d="M114.222 38.1246C117.224 38.1246 119.065 36.1138 119.065 32.7813C119.065 29.4676 117.215 27.4474 114.222 27.4474C111.22 27.4474 109.37 29.4676 109.37 32.7813C109.37 36.1138 111.211 38.1246 114.222 38.1246ZM114.222 36.3215C112.457 36.3215 111.466 35.0281 111.466 32.7813C111.466 30.5533 112.457 29.2505 114.222 29.2505C115.978 29.2505 116.979 30.5533 116.979 32.7813C116.979 35.0187 115.978 36.3215 114.222 36.3215Z" fill="white"/>
<path d="M120.64 37.9263H122.67V31.8561C122.67 30.4117 123.756 29.4393 125.294 29.4393C125.653 29.4393 126.257 29.5054 126.427 29.562V27.5606C126.21 27.504 125.823 27.4757 125.521 27.4757C124.18 27.4757 123.038 28.212 122.745 29.2222H122.594V27.6456H120.64V37.9263Z" fill="white"/>
<path d="M131.467 29.175C132.968 29.175 133.95 30.2229 133.997 31.8372H128.805C128.918 30.2323 129.966 29.175 131.467 29.175ZM133.988 35.1508C133.61 35.9533 132.77 36.397 131.543 36.397C129.919 36.397 128.871 35.2547 128.805 33.4515V33.3382H136.065V32.6302C136.065 29.4015 134.337 27.4474 131.476 27.4474C128.578 27.4474 126.737 29.5337 126.737 32.819C126.737 36.1043 128.54 38.1246 131.486 38.1246C133.837 38.1246 135.479 36.9917 135.942 35.1508H133.988Z" fill="white"/>
<path d="M90.9062 34.1298C91.0627 36.6543 93.1665 38.2688 96.2976 38.2688C99.644 38.2688 101.738 36.576 101.738 33.8754C101.738 31.7521 100.544 30.5779 97.6479 29.9028L96.0921 29.5212C94.2526 29.0906 93.5089 28.5133 93.5089 27.5055C93.5089 26.2335 94.6636 25.4018 96.3955 25.4018C98.0393 25.4018 99.1744 26.2139 99.3798 27.5153H101.513C101.386 25.1376 99.2918 23.4644 96.4248 23.4644C93.3426 23.4644 91.2878 25.1376 91.2878 27.6523C91.2878 29.7267 92.4522 30.9595 95.006 31.5564L96.826 31.9967C98.6949 32.4371 99.5168 33.0829 99.5168 34.1592C99.5168 35.4116 98.2252 36.3216 96.464 36.3216C94.5755 36.3216 93.2643 35.4704 93.0784 34.1298H90.9062Z" fill="white"/>
<path d="M69.8804 27.4757C68.4832 27.4757 67.2748 28.1743 66.6517 29.3449H66.5007V27.6456H64.5465V41.3438H66.5762V36.3687H66.7367C67.2748 37.4543 68.436 38.0963 69.8993 38.0963C72.4954 38.0963 74.1475 36.0477 74.1475 32.7813C74.1475 29.5148 72.4954 27.4757 69.8804 27.4757ZM69.3045 36.2743C67.6052 36.2743 66.5385 34.9337 66.5385 32.7907C66.5385 30.6383 67.6052 29.2977 69.314 29.2977C71.0321 29.2977 72.0612 30.6099 72.0612 32.7813C72.0612 34.962 71.0321 36.2743 69.3045 36.2743Z" fill="white"/>
<path d="M81.2498 27.4757C79.8526 27.4757 78.6442 28.1743 78.0212 29.3449H77.8701V27.6456H75.9159V41.3438H77.9456V36.3687H78.1061C78.6442 37.4543 79.8054 38.0963 81.2687 38.0963C83.8649 38.0963 85.5169 36.0477 85.5169 32.7813C85.5169 29.5148 83.8649 27.4757 81.2498 27.4757ZM80.674 36.2743C78.9747 36.2743 77.9079 34.9337 77.9079 32.7907C77.9079 30.6383 78.9747 29.2977 80.6834 29.2977C82.4016 29.2977 83.4306 30.6099 83.4306 32.7813C83.4306 34.962 82.4016 36.2743 80.674 36.2743Z" fill="white"/>
<path d="M60.9048 37.9263H63.2336L58.1357 23.8068H55.7776L50.6797 37.9263H52.9302L54.2316 34.1788H59.6132L60.9048 37.9263ZM56.8441 26.3705H57.0105L59.0555 32.3392H54.7893L56.8441 26.3705Z" fill="white"/>
<path d="M52.0469 13.1559V19.9673H54.5061C56.5358 19.9673 57.7112 18.7164 57.7112 16.5404C57.7112 14.3974 56.5264 13.1559 54.5061 13.1559H52.0469ZM53.1042 14.1189H54.3881C55.7995 14.1189 56.635 15.0157 56.635 16.5545C56.635 18.1169 55.8136 19.0044 54.3881 19.0044H53.1042V14.1189Z" fill="white"/>
<path d="M61.3109 20.0664C62.8119 20.0664 63.7324 19.061 63.7324 17.3947C63.7324 15.7379 62.8072 14.7278 61.3109 14.7278C59.8098 14.7278 58.8847 15.7379 58.8847 17.3947C58.8847 19.061 59.8051 20.0664 61.3109 20.0664ZM61.3109 19.1648C60.4282 19.1648 59.9326 18.5182 59.9326 17.3947C59.9326 16.2808 60.4282 15.6294 61.3109 15.6294C62.1888 15.6294 62.6892 16.2808 62.6892 17.3947C62.6892 18.5134 62.1888 19.1648 61.3109 19.1648Z" fill="white"/>
<path d="M71.5708 14.8269H70.556L69.6403 18.7495H69.56L68.5027 14.8269H67.5303L66.473 18.7495H66.3974L65.477 14.8269H64.448L65.864 19.9673H66.9072L67.9646 16.1816H68.0448L69.1069 19.9673H70.1595L71.5708 14.8269Z" fill="white"/>
<path d="M72.7396 19.9673H73.7544V16.9605C73.7544 16.158 74.2312 15.6577 74.9817 15.6577C75.7322 15.6577 76.091 16.0683 76.091 16.8944V19.9673H77.1058V16.6395C77.1058 15.4169 76.4733 14.7278 75.3263 14.7278C74.5522 14.7278 74.0424 15.0724 73.7922 15.6435H73.7167V14.8269H72.7396V19.9673Z" fill="white"/>
<path d="M78.7041 19.9673H79.719V12.8208H78.7041V19.9673Z" fill="white"/>
<path d="M83.5358 20.0664C85.0368 20.0664 85.9573 19.061 85.9573 17.3947C85.9573 15.7379 85.0321 14.7278 83.5358 14.7278C82.0347 14.7278 81.1096 15.7379 81.1096 17.3947C81.1096 19.061 82.03 20.0664 83.5358 20.0664ZM83.5358 19.1648C82.6531 19.1648 82.1575 18.5182 82.1575 17.3947C82.1575 16.2808 82.6531 15.6294 83.5358 15.6294C84.4137 15.6294 84.9141 16.2808 84.9141 17.3947C84.9141 18.5134 84.4137 19.1648 83.5358 19.1648Z" fill="white"/>
<path d="M88.9811 19.1979C88.4288 19.1979 88.0276 18.9288 88.0276 18.4662C88.0276 18.0131 88.3486 17.7724 89.0566 17.7252L90.3122 17.6449V18.0745C90.3122 18.7117 89.7458 19.1979 88.9811 19.1979ZM88.7215 20.0523C89.3965 20.0523 89.9582 19.7596 90.265 19.2451H90.3452V19.9673H91.3223V16.4554C91.3223 15.3697 90.5954 14.7278 89.3068 14.7278C88.1409 14.7278 87.3101 15.2942 87.2063 16.1769H88.1881C88.3014 15.8135 88.6931 15.6058 89.2596 15.6058C89.9535 15.6058 90.3122 15.9126 90.3122 16.4554V16.8991L88.9197 16.9794C87.6972 17.0549 87.008 17.5883 87.008 18.5134C87.008 19.4528 87.7302 20.0523 88.7215 20.0523Z" fill="white"/>
<path d="M94.7662 20.0523C95.4743 20.0523 96.0738 19.7171 96.3806 19.1554H96.4608V19.9673H97.4332V12.8208H96.4183V15.6435H96.3428C96.0643 15.0771 95.4696 14.7419 94.7662 14.7419C93.4682 14.7419 92.6327 15.771 92.6327 17.3947C92.6327 19.0232 93.4587 20.0523 94.7662 20.0523ZM95.0542 15.653C95.9038 15.653 96.4372 16.328 96.4372 17.3995C96.4372 18.4757 95.9085 19.1412 95.0542 19.1412C94.1951 19.1412 93.6806 18.4851 93.6806 17.3947C93.6806 16.3138 94.1998 15.653 95.0542 15.653Z" fill="white"/>
<path d="M104.014 20.0664C105.515 20.0664 106.436 19.061 106.436 17.3947C106.436 15.7379 105.511 14.7278 104.014 14.7278C102.513 14.7278 101.588 15.7379 101.588 17.3947C101.588 19.061 102.508 20.0664 104.014 20.0664ZM104.014 19.1648C103.131 19.1648 102.636 18.5182 102.636 17.3947C102.636 16.2808 103.131 15.6294 104.014 15.6294C104.892 15.6294 105.393 16.2808 105.393 17.3947C105.393 18.5134 104.892 19.1648 104.014 19.1648Z" fill="white"/>
<path d="M107.779 19.9673H108.794V16.9605C108.794 16.158 109.271 15.6577 110.021 15.6577C110.772 15.6577 111.13 16.0683 111.13 16.8944V19.9673H112.145V16.6395C112.145 15.4169 111.513 14.7278 110.366 14.7278C109.592 14.7278 109.082 15.0724 108.832 15.6435H108.756V14.8269H107.779V19.9673Z" fill="white"/>
<path d="M116.819 13.5477V14.8505H116.003V15.7049H116.819V18.6078C116.819 19.5991 117.268 19.9956 118.396 19.9956C118.594 19.9956 118.783 19.972 118.948 19.9437V19.0988C118.807 19.1129 118.717 19.1224 118.561 19.1224C118.056 19.1224 117.834 18.8863 117.834 18.3482V15.7049H118.948V14.8505H117.834V13.5477H116.819Z" fill="white"/>
<path d="M120.31 19.9673H121.325V16.9652C121.325 16.1864 121.788 15.6624 122.619 15.6624C123.336 15.6624 123.718 16.0778 123.718 16.8991V19.9673H124.733V16.6489C124.733 15.4264 124.058 14.7325 122.963 14.7325C122.189 14.7325 121.646 15.0771 121.396 15.653H121.316V12.8208H120.31V19.9673Z" fill="white"/>
<path d="M128.394 15.5916C129.145 15.5916 129.636 16.1155 129.659 16.9227H127.063C127.12 16.1203 127.644 15.5916 128.394 15.5916ZM129.655 18.5795C129.466 18.9808 129.046 19.2026 128.432 19.2026C127.62 19.2026 127.096 18.6315 127.063 17.7299V17.6732H130.693V17.3192C130.693 15.7049 129.829 14.7278 128.399 14.7278C126.95 14.7278 126.03 15.771 126.03 17.4136C126.03 19.0563 126.931 20.0664 128.404 20.0664C129.579 20.0664 130.4 19.5 130.632 18.5795H129.655Z" fill="white"/>
<path d="M39.6689 26.3369C39.6936 24.4251 40.7203 22.6161 42.3491 21.6148C41.3215 20.1473 39.6005 19.2168 37.8099 19.1608C35.9001 18.9604 34.0486 20.3036 33.0754 20.3036C32.0834 20.3036 30.585 19.1807 28.9714 19.2139C26.8683 19.2819 24.9076 20.4776 23.8843 22.3163C21.6848 26.1245 23.3255 31.7213 25.4324 34.7995C26.4866 36.3068 27.7186 37.9906 29.3307 37.9309C30.9082 37.8654 31.4974 36.9249 33.4016 36.9249C35.2881 36.9249 35.8409 37.9309 37.4857 37.8929C39.1784 37.8654 40.2449 36.3789 41.2621 34.8573C42.0195 33.7832 42.6023 32.5962 42.989 31.3401C40.9997 30.4988 39.6712 28.4968 39.6689 26.3369Z" fill="white"/>
<path d="M36.5622 17.1364C37.4851 16.0284 37.9398 14.6043 37.8297 13.1665C36.4197 13.3146 35.1172 13.9885 34.1817 15.054C33.267 16.095 32.791 17.4941 32.881 18.8769C34.2916 18.8914 35.6783 18.2358 36.5622 17.1364Z" fill="white"/>
<rect x="186" width="176.534" height="51.9912" rx="10" fill="#2E2E46"/>
<path d="M274.99 27.9871C272.315 27.9871 270.135 30.0217 270.135 32.8241C270.135 35.6093 272.315 37.661 274.99 37.661C277.666 37.661 279.846 35.6093 279.846 32.8241C279.845 30.0217 277.665 27.9871 274.99 27.9871ZM274.99 35.7572C273.524 35.7572 272.26 34.5482 272.26 32.8252C272.26 31.084 273.525 29.8932 274.99 29.8932C276.456 29.8932 277.72 31.084 277.72 32.8252C277.72 34.5471 276.456 35.7572 274.99 35.7572ZM264.397 27.9871C261.722 27.9871 259.542 30.0217 259.542 32.8241C259.542 35.6093 261.722 37.661 264.397 37.661C267.073 37.661 269.253 35.6093 269.253 32.8241C269.253 30.0217 267.073 27.9871 264.397 27.9871ZM264.397 35.7572C262.931 35.7572 261.668 34.5482 261.668 32.8252C261.668 31.084 262.932 29.8932 264.397 29.8932C265.863 29.8932 267.127 31.084 267.127 32.8252C267.128 34.5471 265.863 35.7572 264.397 35.7572ZM251.798 29.4724V31.5241H256.709C256.562 32.6785 256.178 33.5212 255.591 34.1069C254.877 34.8212 253.759 35.6093 251.798 35.6093C248.775 35.6093 246.412 33.1721 246.412 30.1491C246.412 27.1262 248.775 24.6889 251.798 24.6889C253.429 24.6889 254.62 25.3303 255.499 26.1549L256.947 24.7071C255.718 23.5345 254.089 22.6372 251.798 22.6372C247.657 22.6372 244.176 26.0082 244.176 30.1491C244.176 34.2901 247.657 37.661 251.798 37.661C254.033 37.661 255.719 36.9275 257.038 35.5536C258.393 34.1979 258.815 32.2918 258.815 30.753C258.815 30.2776 258.779 29.8375 258.705 29.4713H251.798V29.4724ZM303.327 31.0658C302.925 29.9853 301.696 27.9871 299.186 27.9871C296.694 27.9871 294.623 29.9478 294.623 32.8241C294.623 35.5354 296.676 37.661 299.424 37.661C301.64 37.661 302.923 36.3054 303.456 35.5172L301.807 34.4174C301.257 35.2238 300.505 35.7549 299.424 35.7549C298.343 35.7549 297.573 35.2602 297.079 34.2889L303.547 31.614L303.327 31.0658ZM296.731 32.6785C296.676 30.8088 298.179 29.8568 299.26 29.8568C300.103 29.8568 300.817 30.2788 301.056 30.8827L296.731 32.6785ZM291.473 37.3687H293.597V23.1513H291.473V37.3687ZM287.991 29.0687H287.918C287.441 28.5 286.525 27.9871 285.371 27.9871C282.952 27.9871 280.736 30.1127 280.736 32.8434C280.736 35.5547 282.952 37.6622 285.371 37.6622C286.526 37.6622 287.441 37.1492 287.918 36.5635H287.991V37.2596C287.991 39.11 287.001 40.0994 285.408 40.0994C284.107 40.0994 283.3 39.1657 282.97 38.3775L281.12 39.1475C281.651 40.4292 283.061 42.0055 285.408 42.0055C287.9 42.0055 290.007 40.5396 290.007 36.9661V28.2817H287.992V29.0687H287.991ZM285.554 35.7572C284.088 35.7572 282.861 34.5289 282.861 32.8434C282.861 31.1386 284.088 29.8932 285.554 29.8932C287.001 29.8932 288.137 31.1386 288.137 32.8434C288.137 34.5289 287.001 35.7572 285.554 35.7572ZM313.283 23.1513H308.198V37.3687H310.319V31.9825H313.282C315.634 31.9825 317.947 30.2799 317.947 27.5674C317.947 24.855 315.635 23.1513 313.283 23.1513ZM313.338 30.0035H310.319V25.1302H313.338C314.924 25.1302 315.825 26.4438 315.825 27.5674C315.825 28.6683 314.924 30.0035 313.338 30.0035ZM326.453 27.9621C324.917 27.9621 323.326 28.6388 322.667 30.1389L324.55 30.9248C324.953 30.1389 325.704 29.8819 326.49 29.8819C327.587 29.8819 328.703 30.5404 328.721 31.7106V31.8574C328.336 31.6379 327.513 31.3092 326.508 31.3092C324.478 31.3092 322.41 32.4249 322.41 34.5096C322.41 36.4123 324.075 37.6371 325.94 37.6371C327.366 37.6371 328.153 36.9968 328.647 36.2462H328.72V37.3437H330.769V31.8926C330.77 29.3701 328.885 27.9621 326.453 27.9621ZM326.196 35.7538C325.502 35.7538 324.532 35.4058 324.532 34.5459C324.532 33.4484 325.74 33.0276 326.783 33.0276C327.714 33.0276 328.155 33.2289 328.721 33.503C328.556 34.8212 327.422 35.7538 326.196 35.7538ZM338.232 28.2726L335.8 34.4368H335.727L333.202 28.2726H330.916L334.702 36.8877L332.543 41.6803H334.757L340.592 28.2726H338.232ZM319.119 37.3687H321.24V23.1513H319.119V37.3687Z" fill="white"/>
<path fill-rule="evenodd" clip-rule="evenodd" d="M278.713 10.9858C277.697 10.9858 276.844 11.3389 276.16 12.0426C275.476 12.7459 275.135 13.6081 275.135 14.6235C275.135 15.6389 275.476 16.5011 276.16 17.2044C276.844 17.9081 277.697 18.26 278.713 18.26C279.729 18.26 280.582 17.9081 281.267 17.2043C281.95 16.5011 282.293 15.639 282.293 14.6235C282.293 13.6135 281.949 12.7537 281.262 12.0472C280.575 11.3402 279.724 10.9858 278.713 10.9858ZM276.174 14.6235C276.174 13.8466 276.422 13.2127 276.911 12.7158C277.402 12.2191 278.001 11.9707 278.713 11.9707C279.426 11.9707 280.026 12.2181 280.516 12.7158C281.006 13.2126 281.253 13.8466 281.253 14.6235C281.253 15.4004 281.006 16.0344 280.516 16.5312C280.026 17.0278 279.426 17.2763 278.713 17.2763C278.001 17.2763 277.402 17.029 276.911 16.5313C276.422 16.0344 276.174 15.4005 276.174 14.6235Z" fill="white"/>
<path d="M248.074 10.9881C247.071 10.9881 246.214 11.3365 245.512 12.0337C244.809 12.7303 244.457 13.5952 244.457 14.6246C244.457 15.6529 244.809 16.5178 245.512 17.2155C246.214 17.9115 247.071 18.26 248.074 18.26C249.119 18.26 249.976 17.9171 250.633 17.2283C251.213 16.6459 251.5 15.8677 251.5 14.8998C251.5 14.7306 251.485 14.5543 251.45 14.3711L251.439 14.3124H248.001V15.2768H250.472C250.412 15.8166 250.229 16.2339 249.928 16.5355C249.434 17.0293 248.817 17.2762 248.073 17.2762C247.373 17.2762 246.77 17.0312 246.259 16.539C245.751 16.0492 245.495 15.4126 245.495 14.6235C245.495 13.8343 245.751 13.1977 246.259 12.7079C246.77 12.2157 247.373 11.9707 248.073 11.9707C248.85 11.9707 249.45 12.233 249.886 12.7545L249.937 12.8152L250.639 12.112L250.596 12.0613C250.322 11.734 249.956 11.4741 249.503 11.2794C249.05 11.0855 248.573 10.9881 248.074 10.9881Z" fill="white"/>
<path d="M256.743 11.1394H252.615V18.1076H256.743V17.1239H253.636V15.1052H256.439V14.1407H253.636V12.122H256.743V11.1394Z" fill="white"/>
<path d="M262.347 11.1394H257.513V12.122H259.419V18.1076H260.441V12.122H262.347V11.1394Z" fill="white"/>
<path d="M266.616 11.1394H265.595V18.1076H266.616V11.1394Z" fill="white"/>
<path d="M272.411 11.1394H267.577V12.122H269.484V18.1076H270.505V12.122H272.411V11.1394Z" fill="white"/>
<path d="M284.558 11.1394H283.379V18.1076H284.398L284.398 13.7842L284.366 12.6708L287.756 18.1076H288.783V11.1394H287.762V15.2047L287.762 15.2067L287.794 16.3184L284.558 11.1394Z" fill="white"/>
<g filter="url(#filter0_ii_3119_5174)">
<path d="M209.366 11.8213C209.035 12.1716 208.84 12.7152 208.84 13.4192V38.5719C208.84 39.277 209.035 39.8195 209.366 40.1698L209.451 40.2517L223.541 26.1616V25.9956V25.8295L209.451 11.7383L209.366 11.8213Z" fill="url(#paint0_linear_3119_5174)"/>
<path d="M228.235 30.8602L223.539 26.162V25.9959V25.8299L228.236 21.1328L228.342 21.1931L233.907 24.3548C235.496 25.2578 235.496 26.7352 233.907 27.6393L228.342 30.8011L228.235 30.8602Z" fill="url(#paint1_linear_3119_5174)"/>
<g filter="url(#filter1_i_3119_5174)">
<path d="M228.344 30.8006L223.54 25.9966L209.367 40.1708C209.89 40.7258 210.756 40.7941 211.731 40.2414L228.344 30.8006Z" fill="url(#paint2_linear_3119_5174)"/>
</g>
<path d="M228.344 21.192L211.731 11.7523C210.756 11.1985 209.89 11.2678 209.367 11.8229L223.541 25.9971L228.344 21.192Z" fill="url(#paint3_linear_3119_5174)"/>
</g>
<defs>
<filter id="filter0_ii_3119_5174" x="208.84" y="11.3701" width="26.2585" height="29.253" filterUnits="userSpaceOnUse" color-interpolation-filters="sRGB">
<feFlood flood-opacity="0" result="BackgroundImageFix"/>
<feBlend mode="normal" in="SourceGraphic" in2="BackgroundImageFix" result="shape"/>
<feColorMatrix in="SourceAlpha" type="matrix" values="0 0 0 0 0 0 0 0 0 0 0 0 0 0 0 0 0 0 127 0" result="hardAlpha"/>
<feOffset dy="-0.15"/>
<feComposite in2="hardAlpha" operator="arithmetic" k2="-1" k3="1"/>
<feColorMatrix type="matrix" values="0 0 0 0 0 0 0 0 0 0 0 0 0 0 0 0 0 0 0.12 0"/>
<feBlend mode="normal" in2="shape" result="effect1_innerShadow_3119_5174"/>
<feColorMatrix in="SourceAlpha" type="matrix" values="0 0 0 0 0 0 0 0 0 0 0 0 0 0 0 0 0 0 127 0" result="hardAlpha"/>
<feOffset dy="0.15"/>
<feComposite in2="hardAlpha" operator="arithmetic" k2="-1" k3="1"/>
<feColorMatrix type="matrix" values="0 0 0 0 1 0 0 0 0 1 0 0 0 0 1 0 0 0 0.25 0"/>
<feBlend mode="normal" in2="effect1_innerShadow_3119_5174" result="effect2_innerShadow_3119_5174"/>
</filter>
<filter id="filter1_i_3119_5174" x="209.367" y="25.9966" width="18.9771" height="14.6265" filterUnits="userSpaceOnUse" color-interpolation-filters="sRGB">
<feFlood flood-opacity="0" result="BackgroundImageFix"/>
<feBlend mode="normal" in="SourceGraphic" in2="BackgroundImageFix" result="shape"/>
<feColorMatrix in="SourceAlpha" type="matrix" values="0 0 0 0 0 0 0 0 0 0 0 0 0 0 0 0 0 0 127 0" result="hardAlpha"/>
<feOffset dy="-0.15"/>
<feComposite in2="hardAlpha" operator="arithmetic" k2="-1" k3="1"/>
<feColorMatrix type="matrix" values="0 0 0 0 0 0 0 0 0 0 0 0 0 0 0 0 0 0 0.08 0"/>
<feBlend mode="normal" in2="shape" result="effect1_innerShadow_3119_5174"/>
</filter>
<linearGradient id="paint0_linear_3119_5174" x1="222.292" y1="13.1531" x2="203.205" y2="32.2394" gradientUnits="userSpaceOnUse">
<stop stop-color="#00A0FF"/>
<stop offset="0.0066" stop-color="#00A1FF"/>
<stop offset="0.2601" stop-color="#00BEFF"/>
<stop offset="0.5122" stop-color="#00D2FF"/>
<stop offset="0.7604" stop-color="#00DFFF"/>
<stop offset="1" stop-color="#00E3FF"/>
</linearGradient>
<linearGradient id="paint1_linear_3119_5174" x1="235.975" y1="25.9959" x2="208.457" y2="25.9959" gradientUnits="userSpaceOnUse">
<stop stop-color="#FFE000"/>
<stop offset="0.4087" stop-color="#FFBD00"/>
<stop offset="0.7754" stop-color="#FFA500"/>
<stop offset="1" stop-color="#FF9C00"/>
</linearGradient>
<linearGradient id="paint2_linear_3119_5174" x1="225.735" y1="28.6054" x2="199.852" y2="54.4889" gradientUnits="userSpaceOnUse">
<stop stop-color="#FF3A44"/>
<stop offset="1" stop-color="#C31162"/>
</linearGradient>
<linearGradient id="paint3_linear_3119_5174" x1="205.798" y1="3.44977" x2="217.355" y2="15.0074" gradientUnits="userSpaceOnUse">
<stop stop-color="#32A071"/>
<stop offset="0.0685" stop-color="#2DA771"/>
<stop offset="0.4762" stop-color="#15CF74"/>
<stop offset="0.8009" stop-color="#06E775"/>
<stop offset="1" stop-color="#00F076"/>
</linearGradient>
</defs>
</svg>
